<?xml version="1.0" standalone="no"?>
<!DOCTYPE svg PUBLIC "-//W3C//DTD SVG 20010904//EN"
 "http://www.w3.org/TR/2001/REC-SVG-20010904/DTD/svg10.dtd">
<svg version="1.0" xmlns="http://www.w3.org/2000/svg"
 width="140.000000pt" height="140.000000pt" viewBox="0 0 140.000000 140.000000"
 preserveAspectRatio="xMidYMid meet">
<metadata>
Created by potrace 1.14, written by Peter Selinger 2001-2017
</metadata>
<g transform="translate(0.000000,140.000000) scale(0.100000,-0.100000)"
fill="#000000" stroke="none">
<path d="M741 1224 c0 -11 3 -14 6 -6 3 7 2 16 -1 19 -3 4 -6 -2 -5 -13z"/>
<path d="M748 1165 c2 -19 -1 -58 -8 -87 -12 -52 -62 -162 -77 -171 -5 -3 -24
3 -43 13 l-35 18 37 7 c38 7 50 16 62 49 6 17 2 18 -51 13 -67 -7 -113 -16
-126 -24 -5 -3 -12 -1 -16 5 -3 6 -47 31 -96 57 -83 42 -91 45 -102 29 -24
-33 -14 -49 52 -82 53 -26 69 -30 90 -22 54 20 48 8 -7 -14 -124 -52 -310
-103 -380 -105 -23 -1 -27 -5 -24 -23 3 -13 5 -34 5 -47 1 -21 4 -23 37 -16
48 9 267 79 377 121 89 34 114 41 89 25 -10 -6 -4 -14 23 -30 20 -11 40 -21
45 -21 23 0 18 -25 -18 -77 -76 -113 -95 -160 -98 -249 -3 -81 8 -144 40 -219
23 -53 119 -214 129 -215 4 0 -13 39 -37 87 -78 155 -100 276 -72 396 18 75
59 165 80 173 21 8 126 -49 171 -93 49 -49 93 -127 100 -179 3 -22 8 -82 11
-134 4 -52 8 -106 9 -120 2 -14 4 -50 6 -80 2 -30 5 27 8 127 7 207 11 220 92
260 45 23 94 31 205 34 35 1 64 6 64 10 0 5 -10 9 -22 9 -28 0 -243 55 -338
87 -87 29 -272 103 -283 112 -4 4 -1 15 6 25 12 16 17 17 72 2 33 -8 74 -18
90 -22 46 -10 314 -14 367 -5 l46 8 28 -61 c15 -34 35 -80 46 -104 11 -23 23
-61 28 -85 9 -41 9 -41 6 13 -3 35 -18 88 -44 147 l-40 92 52 12 c87 20 111
62 60 110 l-26 24 13 -29 c12 -25 11 -30 -6 -42 -30 -22 -87 -35 -101 -23 -21
17 -9 142 21 206 22 48 23 54 6 39 -10 -9 -31 -45 -46 -78 -23 -51 -27 -70
-22 -120 3 -32 2 -59 -1 -59 -4 -1 -53 -2 -110 -3 -83 -2 -105 1 -112 13 -7
13 -11 13 -24 2 -12 -10 -35 -12 -89 -7 -66 6 -167 31 -167 42 0 3 9 23 20 44
34 66 53 157 45 217 -3 29 -10 53 -14 53 -4 0 -5 -16 -3 -35z"/>
</g>
</svg>
