<?xml version="1.0" standalone="no"?>
<!DOCTYPE svg PUBLIC "-//W3C//DTD SVG 20010904//EN"
 "http://www.w3.org/TR/2001/REC-SVG-20010904/DTD/svg10.dtd">
<svg version="1.0" xmlns="http://www.w3.org/2000/svg"
 width="671.000000pt" height="671.000000pt" viewBox="0 0 671.000000 671.000000"
 preserveAspectRatio="xMidYMid meet">
<metadata>
Created by potrace 1.14, written by Peter Selinger 2001-2017
</metadata>
<g transform="translate(0.000000,671.000000) scale(0.100000,-0.100000)"
fill="#000000" stroke="none">
<path d="M5715 5604 c-22 -9 -50 -18 -62 -21 -13 -3 -23 -9 -23 -13 0 -4 -18
-15 -40 -25 -22 -10 -40 -22 -40 -27 0 -4 -6 -8 -12 -8 -7 0 -26 -11 -42 -25
-16 -14 -32 -25 -35 -25 -3 0 -19 -11 -34 -25 -15 -14 -27 -24 -27 -22 0 3
-19 -13 -42 -34 -23 -21 -44 -37 -46 -35 -2 3 -16 -8 -30 -23 -15 -14 -49 -44
-77 -66 -27 -22 -55 -44 -61 -50 -6 -5 -32 -28 -58 -50 -27 -22 -58 -49 -71
-60 -79 -72 -95 -85 -95 -81 0 3 -13 -7 -29 -22 -66 -62 -100 -92 -105 -92 -3
0 -16 -10 -29 -22 -13 -13 -43 -39 -66 -58 -24 -19 -48 -39 -55 -45 -6 -5 -34
-28 -61 -50 -28 -22 -56 -44 -62 -50 -7 -5 -24 -19 -39 -30 -14 -11 -31 -24
-37 -30 -7 -5 -30 -23 -52 -40 -22 -16 -44 -33 -50 -37 -79 -62 -115 -88 -123
-88 -6 0 -12 -4 -14 -8 -1 -4 -32 -28 -68 -52 -36 -25 -67 -47 -70 -50 -10
-10 -69 -50 -74 -50 -3 0 -34 -20 -69 -44 -36 -25 -68 -42 -71 -39 -3 4 -6 2
-6 -4 0 -6 -13 -16 -30 -22 -16 -5 -30 -15 -30 -22 0 -7 -3 -9 -6 -6 -4 4 -19
-2 -34 -13 -16 -11 -31 -20 -35 -20 -4 0 -24 -10 -44 -22 -20 -13 -38 -23 -41
-24 -22 -5 -70 -30 -70 -36 0 -4 -4 -8 -9 -8 -6 0 -49 -18 -98 -41 -48 -23
-92 -42 -98 -43 -5 -1 -20 -8 -32 -14 -13 -7 -23 -10 -23 -6 0 3 -6 2 -12 -4
-7 -5 -66 -26 -131 -47 -468 -148 -901 -131 -1283 51 -28 13 -56 24 -62 24 -7
0 -12 5 -12 11 0 5 -5 7 -10 4 -6 -3 -10 -3 -10 2 0 4 -15 15 -33 22 -38 17
-139 82 -149 96 -5 7 -8 7 -8 0 0 -6 -3 -6 -8 0 -4 6 -36 33 -72 60 -75 57
-113 89 -152 128 -15 15 -33 27 -39 27 -7 0 -10 2 -8 5 3 2 -40 51 -96 109
-137 145 -175 187 -175 195 0 5 -12 21 -28 37 -15 17 -43 49 -62 74 -60 75
-171 180 -190 180 -6 0 -10 3 -10 8 0 4 -18 15 -41 25 -117 51 -202 2 -206
-118 -1 -33 3 -66 9 -72 6 -7 8 -13 4 -13 -9 0 24 -63 38 -72 6 -4 7 -8 3 -8
-8 0 43 -73 81 -115 7 -8 11 -15 9 -15 -3 0 9 -15 26 -33 52 -54 148 -159 207
-226 30 -35 69 -78 85 -95 17 -18 46 -52 66 -77 21 -24 48 -56 60 -71 58 -67
69 -82 69 -90 0 -4 7 -8 15 -8 8 0 15 -7 15 -15 0 -8 5 -15 12 -15 6 0 9 -2 6
-5 -3 -3 7 -19 21 -34 15 -16 38 -43 52 -61 13 -17 33 -41 44 -54 11 -13 34
-40 50 -61 17 -22 38 -46 48 -54 9 -9 17 -21 17 -28 0 -7 4 -13 8 -13 4 0 16
-13 25 -30 10 -16 23 -35 30 -42 29 -32 97 -117 97 -122 0 -5 9 -17 53 -69 10
-12 26 -34 35 -49 9 -16 20 -28 24 -28 4 0 8 -5 8 -10 0 -11 10 -24 43 -61 9
-10 17 -21 17 -24 0 -6 77 -115 110 -155 11 -14 20 -30 20 -37 0 -6 3 -13 8
-15 4 -1 21 -23 37 -48 17 -25 35 -50 40 -57 6 -6 24 -34 40 -62 17 -28 33
-51 38 -51 4 0 7 -4 7 -9 0 -8 111 -190 168 -277 6 -10 18 -30 24 -44 7 -14
23 -40 36 -57 14 -18 20 -33 16 -33 -5 0 -4 -4 1 -8 11 -8 28 -37 71 -122 15
-30 30 -57 33 -60 3 -3 17 -27 30 -55 14 -27 29 -56 35 -64 6 -7 11 -18 12
-25 1 -6 12 -28 24 -49 16 -27 29 -37 48 -38 53 -2 258 2 305 6 122 11 174 16
202 21 17 3 46 7 65 9 36 3 103 12 155 21 17 3 41 7 55 9 14 3 57 11 95 20 95
21 111 24 143 30 15 3 43 11 62 17 19 7 40 13 45 13 6 1 12 3 15 4 3 2 12 4
21 6 8 1 56 15 105 31 49 15 91 28 94 29 3 1 19 7 35 14 17 7 35 14 40 15 6 1
28 10 50 20 22 10 47 19 57 21 18 4 77 33 94 47 8 6 9 20 3 46 -5 20 -12 48
-15 61 -3 14 -8 29 -11 34 -3 5 -7 23 -9 40 -2 18 -6 43 -9 57 -19 83 -25 310
-12 420 14 118 36 220 74 340 15 47 26 88 25 93 -1 4 3 7 10 7 6 0 9 3 5 6 -3
3 7 33 22 67 15 34 29 65 30 69 7 34 159 321 173 326 4 2 6 8 2 13 -3 5 -1 9
4 9 5 0 17 18 27 40 10 22 22 40 27 40 4 0 8 5 8 11 0 6 7 17 15 26 8 8 13 19
10 24 -4 5 -2 9 3 9 9 0 58 67 60 83 1 4 11 17 22 30 12 12 30 37 41 55 12 17
25 32 30 32 5 0 8 4 7 8 -3 7 46 72 80 108 7 8 10 14 5 14 -4 0 -1 6 7 13 13
10 58 65 110 131 8 11 27 32 42 48 14 15 24 28 22 28 -5 0 47 58 103 117 12
13 20 23 18 23 -2 0 14 19 35 42 22 23 40 45 40 50 0 5 5 6 10 3 6 -3 10 -2
10 2 0 5 25 35 55 68 30 33 55 64 55 68 0 5 5 5 10 2 6 -3 10 -2 10 4 0 6 100
111 221 233 242 244 294 305 314 370 31 104 -62 167 -180 122z"/>
<path d="M2645 5418 c-32 -4 -74 -13 -93 -19 -18 -6 -39 -12 -45 -13 -24 -4
-113 -49 -157 -79 -61 -41 -172 -157 -196 -204 -10 -21 -21 -40 -25 -43 -8 -7
-50 -109 -55 -134 -2 -11 -8 -34 -12 -51 -8 -35 -8 -221 1 -280 9 -60 53 -164
101 -235 38 -57 171 -190 190 -190 8 0 16 -4 18 -8 5 -13 125 -68 178 -82 78
-21 93 -23 190 -23 101 1 183 18 266 55 27 12 52 21 57 20 4 -1 7 2 7 7 0 5 9
13 21 16 23 8 61 38 123 101 64 64 102 109 86 100 -11 -6 -11 -4 1 6 9 7 19
23 23 36 4 12 12 22 17 22 5 0 9 6 9 14 0 7 9 34 20 58 11 25 22 56 24 69 3
13 5 24 6 24 6 0 12 55 15 135 2 80 -4 134 -27 230 -5 25 -87 182 -103 199
-67 72 -138 141 -145 141 -5 0 -15 6 -23 14 -23 23 -153 85 -204 97 -99 23
-180 28 -268 17z"/>
<path d="M168 4006 c-16 -13 -28 -26 -28 -30 0 -4 -10 -17 -22 -30 -35 -35
-78 -89 -78 -98 0 -10 61 -70 107 -104 21 -16 46 -37 56 -48 9 -10 17 -16 17
-12 0 4 14 -8 32 -26 18 -18 35 -33 38 -32 7 2 74 -49 78 -58 2 -5 8 -8 14 -8
6 0 27 -13 48 -30 21 -16 42 -30 47 -30 6 0 18 -9 28 -20 10 -11 24 -20 32
-20 7 0 13 -4 13 -10 0 -5 7 -10 15 -10 8 0 15 -4 15 -10 0 -5 6 -10 13 -10 7
0 22 -8 33 -17 11 -10 49 -33 85 -52 35 -19 66 -37 69 -40 13 -16 447 -231
466 -231 3 0 24 -8 47 -19 23 -10 94 -38 157 -61 63 -23 122 -44 130 -47 16
-7 31 -11 58 -17 9 -3 18 -5 20 -6 1 -2 5 -3 10 -4 4 -1 24 -8 45 -15 20 -7
53 -14 73 -16 34 -2 35 -1 29 24 -4 14 -11 28 -16 29 -5 2 -9 10 -9 18 0 8 -4
14 -10 14 -5 0 -10 4 -10 10 0 9 -19 35 -47 65 -7 7 -9 15 -6 19 3 3 -2 8 -11
12 -9 3 -16 10 -16 16 0 5 -6 15 -12 22 -7 8 -20 24 -28 36 -32 47 -52 71 -58
66 -3 -3 -10 -2 -16 3 -6 5 -38 19 -71 31 -33 12 -74 28 -90 35 -30 14 -85 37
-95 40 -35 12 -311 148 -375 185 -22 12 -60 34 -85 48 -25 13 -52 30 -60 38
-8 7 -18 13 -23 13 -9 1 -58 32 -75 48 -7 7 -18 13 -23 13 -5 0 -15 5 -22 10
-7 6 -64 47 -127 92 -63 45 -161 119 -217 165 -57 46 -106 83 -110 83 -5 0
-20 -11 -35 -24z"/>
<path d="M5167 3554 c-2 -2 -46 -6 -98 -9 -52 -3 -103 -7 -114 -9 -11 -2 -55
-7 -98 -11 -43 -3 -88 -8 -100 -10 -32 -5 -85 -13 -142 -21 -27 -3 -59 -8 -70
-10 -11 -3 -42 -9 -69 -14 -27 -6 -58 -19 -68 -30 -10 -11 -16 -20 -13 -20 3
0 0 -10 -7 -22 -7 -13 -13 -25 -14 -28 -1 -6 -13 -39 -24 -65 -42 -102 -36
-129 24 -122 23 3 48 8 56 11 8 3 29 7 45 10 17 2 53 9 80 14 28 6 75 13 105
17 30 4 74 11 97 16 23 5 79 11 124 15 46 3 86 7 89 9 15 9 298 20 515 19 243
-1 421 -9 485 -20 19 -4 46 -8 60 -9 26 -2 161 -18 170 -20 3 0 27 -4 53 -9
27 -4 59 -9 70 -12 61 -11 134 -26 152 -29 82 -17 104 -16 113 2 6 10 10 21
10 26 0 4 3 20 6 35 3 15 8 41 11 57 2 17 9 44 14 61 9 33 1 56 -21 60 -7 1
-40 7 -73 15 -33 7 -67 14 -75 16 -8 1 -31 5 -50 8 -19 2 -57 9 -85 15 -27 5
-70 12 -95 14 -44 5 -105 13 -166 21 -35 5 -122 14 -214 21 -71 6 -678 13
-683 8z"/>
<path d="M4263 2988 c-13 -16 -21 -59 -29 -154 -6 -82 -2 -89 70 -98 260 -35
426 -114 426 -203 0 -19 -7 -48 -16 -66 -25 -48 -133 -148 -202 -187 -15 -8
-41 -24 -57 -36 -17 -11 -52 -32 -80 -45 -27 -14 -61 -31 -75 -39 -14 -8 -27
-15 -30 -15 -3 -1 -27 -11 -55 -24 -68 -32 -126 -56 -155 -66 -3 -1 -16 -6
-30 -12 -28 -12 -117 -43 -140 -49 -8 -2 -46 -13 -85 -24 -38 -11 -81 -23 -94
-26 -14 -3 -28 -7 -33 -10 -5 -3 -21 -7 -36 -10 -15 -2 -54 -11 -87 -19 -33
-8 -71 -16 -85 -19 -14 -3 -57 -12 -97 -20 -40 -9 -91 -18 -115 -21 -24 -3
-77 -10 -118 -16 -245 -37 -671 -46 -824 -18 -23 4 -59 10 -81 13 -163 23
-312 79 -354 131 -30 39 -35 63 -21 106 21 62 117 151 263 243 54 34 58 39 52
64 -3 15 -11 29 -16 30 -5 2 -9 10 -9 18 0 8 -4 14 -10 14 -5 0 -10 5 -10 12
0 25 -73 117 -91 115 -25 -4 -190 -113 -182 -121 3 -3 1 -6 -5 -6 -15 0 -42
-23 -96 -78 -22 -24 -54 -57 -71 -74 -16 -17 -29 -34 -27 -37 1 -3 -5 -14 -13
-23 -8 -10 -12 -18 -10 -18 3 0 -1 -10 -9 -22 -20 -31 -42 -125 -40 -168 3
-76 33 -154 78 -205 14 -16 26 -34 26 -38 0 -5 5 -5 10 -2 6 3 10 2 10 -3 0
-12 94 -75 159 -106 100 -47 299 -98 441 -111 30 -3 123 -8 205 -10 176 -6
195 -9 195 -33 0 -10 5 -23 11 -29 6 -6 12 -17 13 -24 2 -8 9 -27 16 -44 7
-16 14 -36 16 -44 6 -31 50 -104 70 -118 35 -22 100 -40 184 -50 64 -8 286 -7
380 1 125 10 211 20 265 30 28 5 94 16 130 21 17 2 41 7 55 9 14 3 34 8 45 10
11 2 43 10 70 16 28 6 61 14 75 16 14 3 39 9 56 15 17 5 41 12 54 14 29 6 89
24 115 35 11 5 43 16 70 26 70 25 185 84 185 95 0 5 6 9 14 9 13 0 46 56 46
77 0 12 -64 101 -102 144 -10 10 -18 22 -18 27 0 4 -7 15 -15 25 -8 9 -15 20
-15 22 0 3 -10 22 -23 43 -35 58 -33 74 10 94 60 27 158 82 161 90 2 5 8 8 13
8 13 0 91 52 106 70 7 8 13 12 13 8 1 -19 171 150 209 207 14 22 30 43 36 47
5 4 7 8 3 8 -4 0 3 21 15 48 33 74 31 189 -6 264 -30 62 -111 149 -161 175
-17 8 -39 22 -48 31 -10 8 -18 12 -18 7 0 -4 -10 -1 -22 7 -13 8 -41 21 -63
28 -22 7 -46 17 -52 23 -7 5 -13 7 -13 4 0 -3 -21 1 -47 9 -27 8 -64 17 -83
20 -19 3 -38 8 -42 10 -3 2 -37 7 -75 10 -51 4 -72 3 -80 -8z"/>
</g>
</svg>
